<svg width="17" height="20" viewBox="0 0 17 20" fill="none" xmlns="http://www.w3.org/2000/svg"><path d="M15.665 6.493c-.678 0-1.236.558-1.236 1.237v5.153c0 .679.557 1.237 1.236 1.237.68 0 1.237-.558 1.237-1.237V7.73c0-.685-.558-1.237-1.237-1.237zm-14.428 0C.557 6.493 0 7.045 0 7.73v5.153c0 .679.558 1.237 1.237 1.237s1.236-.558 1.236-1.237V7.73c0-.685-.557-1.237-1.236-1.237zm12.294.212H2.935v7.996c0 .74.594 1.334 1.334 1.334h.885v2.728c0 .68.558 1.237 1.237 1.237s1.237-.558 1.237-1.237v-2.728h1.649v2.728c0 .68.557 1.237 1.236 1.237.68 0 1.237-.558 1.237-1.237v-2.728h.885a1.33 1.33 0 001.334-1.334V6.705h-.436zM3.37 6.269h10.599a4.6 4.6 0 00-.176-1.267c-.34-1.219-1.158-2.262-2.255-2.947-.06-.036-.127-.073-.188-.109a1.96 1.96 0 00-.194-.103l.212-.382.661-1.194a.17.17 0 00-.067-.237.167.167 0 00-.236.067l-.673 1.213-.212.381c-.067-.03-.134-.06-.2-.084l-.206-.08a5.883 5.883 0 00-1.977-.339c-.697 0-1.364.122-1.976.34-.067.024-.14.048-.206.079a2.825 2.825 0 00-.2.084l-.213-.381L5.19.097A.171.171 0 004.953.03a.171.171 0 00-.067.237l.65 1.188.211.382-.194.103c-.06.036-.127.073-.188.11-1.097.684-1.915 1.727-2.255 2.952-.115.406-.176.83-.176 1.267h.437zm2.535-2.94a.458.458 0 01.46.46c0 .018 0 .036-.005.055a.469.469 0 01-.455.406.46.46 0 110-.922zm5.092 0a.46.46 0 110 .92.454.454 0 01-.454-.405c0-.019-.006-.037-.006-.055a.464.464 0 01.46-.46z" fill="#A4C639"/></svg>