<svg width="19" height="20" viewBox="0 0 19 20" fill="none" xmlns="http://www.w3.org/2000/svg"><path d="M2.78 10.54c2.174-.468 1.878-3.067 1.812-3.635-.106-.876-1.136-2.406-2.535-2.286C.297 4.777.04 7.32.04 7.32c-.238 1.176.57 3.687 2.74 3.22zm2.309 4.519c-.064.183-.207.65-.083 1.057.243.913 1.036.954 1.036.954H7.18v-2.784H5.96c-.548.164-.812.59-.871.773zM6.815 6.18c1.202 0 2.172-1.382 2.172-3.092C8.987 1.382 8.017 0 6.815 0 5.616 0 4.643 1.382 4.643 3.09c0 1.709.973 3.09 2.172 3.09zm5.173.204c1.605.208 2.638-1.505 2.842-2.803.21-1.297-.826-2.804-1.963-3.062-1.138-.26-2.56 1.563-2.69 2.752-.154 1.454.209 2.907 1.81 3.113zm3.934 7.633s-2.484-1.922-3.933-3.999C10.023 6.957 7.23 8.203 6.297 9.76c-.93 1.557-2.38 2.543-2.585 2.803-.208.257-3 1.764-2.38 4.516.62 2.751 2.796 2.699 2.796 2.699s1.604.158 3.464-.258c1.862-.414 3.464.102 3.464.102s4.348 1.457 5.538-1.346c1.188-2.804-.672-4.258-.672-4.258zm-7.44 4.171H5.655c-1.22-.243-1.706-1.076-1.768-1.218-.06-.145-.406-.815-.223-1.953.528-1.707 2.032-1.83 2.032-1.83h1.505v-1.85l1.281.02v6.831zm5.265-.019h-3.253c-1.26-.325-1.32-1.22-1.32-1.22v-3.598l1.32-.021v3.233c.08.344.508.407.508.407h1.34v-3.62h1.404v4.82h.001zm4.605-9.605c0-.621-.517-2.491-2.43-2.491-1.917 0-2.173 1.765-2.173 3.013 0 1.19.1 2.854 2.482 2.8 2.381-.052 2.12-2.697 2.12-3.322z" fill="#fff"/></svg>