<svg width="20" height="15" viewBox="0 0 20 15" fill="none" xmlns="http://www.w3.org/2000/svg"><path d="M6.31 2.469c0-.65-.397-1.473-2.07-1.473H1.661L.93 4.385h2.686c2.098 0 2.695-.993 2.695-1.916zm6.942 0c0-.65-.397-1.473-2.07-1.473H8.605l-.732 3.388h2.685c2.098 0 2.694-.992 2.694-1.915zm-7.87 5.1c0-.65-.399-1.475-2.072-1.475H.732L0 9.486h2.685c2.098 0 2.696-.996 2.696-1.916zm6.94 0c0-.65-.398-1.475-2.07-1.475H7.675l-.733 3.392h2.686c2.098 0 2.695-.996 2.695-1.916zm7.263-2.068c0-.65-.398-1.475-2.07-1.475h-2.577l-.734 3.39h2.686c2.098 0 2.695-.992 2.695-1.915zm-1 5.31c0-.65-.399-1.472-2.072-1.472h-2.576l-.733 3.389h2.685c2.098 0 2.695-.996 2.695-1.916zm-7.26 2.07c0-.653-.397-1.478-2.069-1.478H6.678l-.733 3.39h2.686c2.098.001 2.694-.991 2.694-1.912z" fill="#fff"/></svg>