<svg width="2484" height="2763" viewBox="0 0 2484 2763" xmlns="http://www.w3.org/2000/svg"><path d="M1767.303.54c-82.207 4.36-159.476 33.907-224.641 85.834-16.751 13.369-45.993 42.626-59.452 59.483-71.363 89.32-100.12 203.055-79.883 315.53 6.487 36.62 17.525 69.268 35.439 104.919 46.67 93.487 128.78 164.014 228.804 196.565 23.045 7.46 45.606 12.497 73.59 16.275 16.363 2.228 72.717 2.519 89.081.485 78.915-9.688 145.92-38.17 207.018-87.965 13.363-10.85 41.636-39.526 52.675-53.186 54.804-68.493 84.434-146.092 87.726-230.279 3.873-97.265-25.369-186.586-85.887-262.635-13.071-16.47-42.507-45.823-59.161-59.192-76.01-60.549-169.546-90.871-265.31-85.834zM370.863 9.288c-45.324 4.068-82.222 12.59-119.604 27.699-90.938 36.706-164.637 104.5-208.702 192.052C20.573 272.622 8.564 313.3 1.688 367.05.042 379.835-.732 2354.692.913 2378.517c6.005 88.036 40.191 169.874 98.783 236.797 118.635 135.202 313.198 174.232 474.058 95.01 112.147-55.302 192.723-160.093 216.353-281.736 3.68-18.692 5.617-34.769 6.876-54.816 1.356-21.985 1.356-1966.335 0-1988.32-3.777-63.146-20.822-120.48-52.103-175.781-24.889-43.97-64.208-88.618-105.464-119.9-57.72-43.68-120.864-69.247-194.95-78.739-10.653-1.356-63.531-2.615-73.603-1.743zM1464.462 1182.79c-116.397 7.358-223.304 65.156-293.123 158.486-30.697 40.952-53.938 89.553-66.72 139.413-28.276 110.272-8.522 227.32 54.131 321.134 7.65 11.425-14.912-18.491 319.657 422.597 161.329 212.702 296.416 390.453 300.192 395.004 25.759 30.884 52.582 54.894 85.797 76.87 24.984 16.556 46.966 28.077 73.596 38.63 48.127 19.072 95.19 27.98 147.675 28.076 42.317 0 77.082-5.034 116.59-16.846 150.581-45.406 259.91-176.3 278.89-334.398 11.329-93.523-11.33-188.982-63.429-267.208-4.938-7.455-140.896-187.434-302.032-399.845-332.923-438.765-312.297-411.656-321.593-422.693-80.18-94.879-204.034-147.159-329.63-139.22z" fill="#6F02B5"/></svg>