<svg width="162" height="155" viewBox="0 0 162 155" xmlns="http://www.w3.org/2000/svg"><defs><linearGradient x1="50%" y1="0%" x2="50%" y2="100.001%" id="a"><stop stop-color="#A70014" offset="0%"/><stop stop-color="#FF4B4B" offset="70%"/><stop stop-color="#FF4B4B" offset="100%"/></linearGradient><linearGradient x1="50%" y1=".001%" x2="50%" y2="99.999%" id="b"><stop stop-color="#FF1B2D" offset="0%"/><stop stop-color="#FF1B2D" offset="30%"/><stop stop-color="#A70014" offset="100%"/></linearGradient></defs><g fill="none" fill-rule="evenodd"><path d="M51.229 39.896C58.243 29.791 68.06 23.51 78.925 23.51c21.316 0 38.598 24.167 38.598 53.981 0 29.812-17.282 53.979-38.598 53.979-11.896 0-22.537-7.528-29.617-19.363 10.725 18.935 30 31.401 51.993 31.401 11.528 0 19.659-2.664 25.755-6.32 17.169-14.154 28.116-35.585 28.116-59.572 0-24.666-11.573-46.629-29.583-60.756-7.444-3.497-15.654-5.438-24.288-5.438-20.738 0-39.058 11.345-50.072 28.474z" fill="url(#a)"/><path d="M78.004.445C35.386.445.835 34.996.835 77.616c0 42.616 34.551 77.167 77.169 77.167 18.63 0 35.718-6.603 49.052-17.595-6.096 3.656-14.227 6.32-25.755 6.32-21.993 0-41.268-12.466-51.993-31.401-5.626-9.936-8.902-21.654-8.978-34.287l-.002-.381c.002-1.265.034-2.517.096-3.763.645-12.447 4.546-24.048 10.805-33.78 11.014-17.129 29.334-28.474 50.072-28.474 8.634 0 16.844 1.941 24.288 5.438C112.477 6.58 95.956.445 78.004.445z" fill="url(#b)"/><path d="M161.122 80.899H93.953c-21.78 0-24.547 21.711-24.547 29.75v11.13h61.004c28.034 0 30.712-23.89 30.712-31.887v-8.993z" fill="#439F46"/><path d="M88.336 91.193h4.019l6.449 16.076 6.448-16.076h4.014v20.249h-3.702V99.077c-.168.52-.981 3.089-.981 3.089l-3.959 9.276h-3.642l-3.961-9.276s-.814-2.569-.983-3.089v12.365h-3.702V91.193zm23.696-.001h3.828v20.248h-3.828V91.192zm6.593.001h3.888l8.438 12.876s.691 1.167.86 1.601V91.193h3.702v20.249h-3.863l-8.45-12.949s-.704-1.15-.873-1.584v14.533h-3.702V91.193zm19.696-.001h3.786v20.248h-3.786V91.192z" fill="#FFF"/></g></svg>