<svg width="20" height="20" viewBox="0 0 20 20" fill="none" xmlns="http://www.w3.org/2000/svg"><path d="M18.496 15.296L18.4 15.2a1.724 1.724 0 00-.416-.224c-.064-.032-.096-.032-.16-.064a2.776 2.776 0 00-.896-.16c0-.256-.064-.544-.128-.768a3.14 3.14 0 00-1.952-2.016 3.116 3.116 0 00-1.088-.192 3.155 3.155 0 00-3.008 2.144 1.433 1.433 0 00-.64-.128c-.096 0-.16 0-.256.032-.64.096-1.152.608-1.28 1.248a5.21 5.21 0 01-3.744-5.28C4.96 7.168 7.136 5.024 9.76 4.896c2.976-.128 5.44 2.24 5.44 5.184 0 .352-.032.704-.096 1.056 1.248.448 2.208 1.44 2.56 2.72.064.16.192.288.384.32.128.032.288.032.384.032h.704c.704-1.504 1.024-3.2.864-5.024-.416-4.896-4.416-8.8-9.28-9.12C4.832-.352 0 4.256 0 9.984c0 5.472 4.384 9.92 9.856 9.984H16.8c1.376 0 2.592-1.024 2.72-2.432a2.594 2.594 0 00-1.024-2.24z" fill="#fff"/></svg>