<svg width="171" height="59" viewBox="0 0 171 59" fill="none" xmlns="http://www.w3.org/2000/svg"><g filter="url(#filter0_dd)"><mask id="a" fill="#fff"><path fill-rule="evenodd" clip-rule="evenodd" d="M12 3a8 8 0 00-8 8v28a8 8 0 008 8h65.695l7.807 6.924L93.31 47H159a8 8 0 008-8V11a8 8 0 00-8-8H12z"/></mask><path fill-rule="evenodd" clip-rule="evenodd" d="M12 3a8 8 0 00-8 8v28a8 8 0 008 8h65.695l7.807 6.924L93.31 47H159a8 8 0 008-8V11a8 8 0 00-8-8H12z" fill="#03111E"/><path d="M77.695 47l.995-1.122-.426-.378h-.57V47zm7.807 6.924l-.995 1.122.995.883.996-.883-.996-1.122zM93.31 47v-1.5h-.57l-.425.378L93.31 47zM5.5 11A6.5 6.5 0 0112 4.5v-3A9.5 9.5 0 002.5 11h3zm0 28V11h-3v28h3zm6.5 6.5A6.5 6.5 0 015.5 39h-3a9.5 9.5 0 009.5 9.5v-3zm65.695 0H12v3h65.695v-3zm8.803 7.302l-7.808-6.924-1.99 2.244 7.807 6.924 1.99-2.244zm5.816-6.924l-7.807 6.924 1.99 2.244 7.808-6.924-1.99-2.244zM159 45.5H93.31v3H159v-3zm6.5-6.5a6.5 6.5 0 01-6.5 6.5v3a9.5 9.5 0 009.5-9.5h-3zm0-28v28h3V11h-3zM159 4.5a6.5 6.5 0 016.5 6.5h3a9.5 9.5 0 00-9.5-9.5v3zm-147 0h147v-3H12v3z" fill="#4D525D" mask="url(#a)"/></g><defs><filter id="filter0_dd" x="0" y="0" width="171" height="58.924" filterUnits="userSpaceOnUse" color-interpolation-filters="sRGB"><feFlood flood-opacity="0" result="BackgroundImageFix"/><feColorMatrix in="SourceAlpha" values="0 0 0 0 0 0 0 0 0 0 0 0 0 0 0 0 0 0 127 0"/><feOffset dy="1"/><feGaussianBlur stdDeviation="2"/><feColorMatrix values="0 0 0 0 0.0627451 0 0 0 0 0.156863 0 0 0 0 0.25098 0 0 0 0.15 0"/><feBlend in2="BackgroundImageFix" result="effect1_dropShadow"/><feColorMatrix in="SourceAlpha" values="0 0 0 0 0 0 0 0 0 0 0 0 0 0 0 0 0 0 127 0"/><feOffset dy="1"/><feGaussianBlur stdDeviation=".5"/><feColorMatrix values="0 0 0 0 0.121569 0 0 0 0 0.333333 0 0 0 0 0.494118 0 0 0 0.05 0"/><feBlend in2="effect1_dropShadow" result="effect2_dropShadow"/><feBlend in="SourceGraphic" in2="effect2_dropShadow" result="shape"/></filter></defs></svg>