<svg width="644" height="278" viewBox="0 0 644 278" fill="none" xmlns="http://www.w3.org/2000/svg"><path d="M498.261 173.797c.796.46 2.088.46 2.884 0 .797-.46.797-1.206 0-1.665-.796-.46-2.088-.46-2.884 0-.797.459-.797 1.205 0 1.665zm-29.67-17.129c.825.476 2.061.476 2.885 0 .824-.476.824-1.19 0-1.665-.824-.476-2.06-.476-2.885 0-.824.475-.824 1.189 0 1.665zm59.339 0c.824.476 2.06.476 2.885 0 .824-.476.824-1.19 0-1.665-.825-.476-2.061-.476-2.885 0-.824.475-.824 1.189 0 1.665zm-29.669-17.131c.824.476 2.06.476 2.884 0 .824-.476.824-1.189 0-1.665s-2.06-.476-2.884 0c-.825.476-.825 1.189 0 1.665zm-29.67 0c.825.476 2.061.476 2.885 0 .824-.476.824-1.189 0-1.665s-2.06-.476-2.885 0c-.824.476-.824 1.189 0 1.665zm29.67 17.131c.824.476 2.06.476 2.884 0 .824-.476.824-1.19 0-1.665-.824-.476-2.06-.476-2.884 0-.825.475-.825 1.189 0 1.665zm-.001-34.26c.825.476 2.061.476 2.885 0 .824-.476.824-1.189 0-1.665s-2.06-.476-2.885 0c-.824.476-.824 1.189 0 1.665zm29.67 17.129c.824.476 2.06.476 2.884 0 .824-.476.824-1.189 0-1.665s-2.06-.476-2.884 0c-.824.476-.824 1.189 0 1.665zm-89.008 0c.796.46 2.088.46 2.884 0 .797-.46.797-1.205 0-1.665-.797-.46-2.088-.46-2.884 0-.797.46-.797 1.205 0 1.665zm29.669-17.129c.825.476 2.061.476 2.885 0 .824-.476.824-1.189 0-1.665s-2.06-.476-2.885 0c-.824.476-.824 1.189 0 1.665zm89.008 17.129c.824.476 2.06.476 2.884 0 .824-.476.824-1.189 0-1.665s-2.06-.476-2.884 0c-.824.476-.824 1.189 0 1.665zm-29.669-17.13c.824.476 2.06.476 2.884 0 .824-.476.824-1.189 0-1.665s-2.06-.476-2.884 0c-.824.476-.824 1.189 0 1.665zm-29.67-17.13c.825.476 2.061.476 2.885 0 .824-.475.824-1.189 0-1.665s-2.06-.476-2.885 0c-.824.476-.824 1.19 0 1.665zm-59.338 102.779c.797.46 2.088.46 2.884 0 .797-.46.797-1.206 0-1.666-.796-.46-2.087-.46-2.884 0-.796.46-.796 1.206 0 1.666zm-29.669-17.128c.824.476 2.06.476 2.884 0 .824-.476.824-1.19 0-1.666-.824-.475-2.06-.475-2.884 0-.824.476-.824 1.19 0 1.666zm59.338 0c.825.476 2.061.476 2.885 0 .824-.476.824-1.19 0-1.666-.824-.475-2.06-.475-2.885 0-.824.476-.824 1.19 0 1.666zm-29.669-17.131c.824.476 2.06.476 2.885 0 .824-.476.824-1.19 0-1.665-.825-.476-2.061-.476-2.885 0-.824.475-.824 1.189 0 1.665zm-29.669 0c.824.476 2.06.476 2.884 0 .824-.476.824-1.19 0-1.665-.824-.476-2.06-.476-2.884 0-.824.475-.824 1.189 0 1.665zm29.669 17.129c.824.476 2.06.476 2.885 0 .824-.476.824-1.19 0-1.666-.825-.475-2.061-.475-2.885 0-.824.476-.824 1.19 0 1.666zm0-34.258c.824.476 2.06.476 2.885 0 .824-.476.824-1.19 0-1.665-.825-.476-2.061-.476-2.885 0-.824.475-.824 1.189 0 1.665zm29.669 17.129c.825.476 2.061.476 2.885 0 .824-.476.824-1.19 0-1.665-.824-.476-2.06-.476-2.885 0-.824.475-.824 1.189 0 1.665zm-89.009 0c.796.46 2.088.46 2.884 0 .797-.46.797-1.206 0-1.665-.796-.46-2.088-.46-2.884 0-.797.459-.797 1.205 0 1.665zm29.669-17.129c.825.476 2.061.476 2.885 0 .824-.476.824-1.19 0-1.665-.824-.476-2.061-.476-2.885 0-.824.475-.824 1.189 0 1.665z" fill="#4636E3"/><path d="M498.261 173.797c.824.476 2.06.476 2.884 0 .824-.476.824-1.19 0-1.665-.824-.476-2.06-.476-2.884 0-.825.475-.825 1.189 0 1.665zm-29.67-17.129c.824.476 2.06.476 2.884 0 .824-.476.824-1.19 0-1.665-.824-.476-2.06-.476-2.884 0-.824.475-.824 1.189 0 1.665zm-29.67-17.131c.824.476 2.061.476 2.885 0 .824-.476.824-1.189 0-1.665s-2.061-.476-2.885 0c-.824.476-.824 1.189 0 1.665zm-59.339 102.779c.796.46 2.088.46 2.884 0 .797-.46.797-1.205 0-1.665-.796-.46-2.088-.46-2.884 0-.797.46-.797 1.206 0 1.665zm-29.669-17.128c.824.475 2.06.475 2.884 0 .824-.476.824-1.19 0-1.666s-2.06-.476-2.884 0c-.824.476-.824 1.19 0 1.666zm59.338 0c.824.475 2.06.475 2.885 0 .824-.476.824-1.19 0-1.666-.825-.476-2.061-.476-2.885 0-.824.476-.824 1.19 0 1.666zm-29.669-17.131c.824.476 2.06.476 2.884 0 .825-.476.825-1.19 0-1.666-.824-.476-2.06-.476-2.884 0-.824.476-.824 1.19 0 1.666zm-29.669 0c.824.476 2.06.476 2.884 0 .824-.476.824-1.19 0-1.666s-2.06-.476-2.884 0c-.824.476-.824 1.19 0 1.666zm29.669 17.13c.824.475 2.06.475 2.884 0 .825-.476.825-1.19 0-1.666-.824-.476-2.06-.476-2.884 0-.824.476-.824 1.19 0 1.666zm0-34.259c.824.476 2.06.476 2.884 0 .825-.476.825-1.19 0-1.666-.824-.475-2.06-.475-2.884 0-.824.476-.824 1.19 0 1.666zm29.669 17.129c.824.476 2.06.476 2.885 0 .824-.476.824-1.19 0-1.666-.825-.476-2.061-.476-2.885 0-.824.476-.824 1.19 0 1.666zm-89.008-.001c.797.46 2.088.46 2.885 0 .796-.46.796-1.206 0-1.666-.797-.46-2.088-.46-2.885 0-.796.46-.796 1.206 0 1.666zm29.671-17.128c.824.476 2.061.476 2.885 0 .824-.476.824-1.19 0-1.666-.824-.475-2.061-.475-2.885 0-.824.476-.824 1.19 0 1.666zm89.007 17.129c.824.476 2.06.476 2.884 0 .824-.476.824-1.19 0-1.666s-2.06-.476-2.884 0c-.824.476-.824 1.19 0 1.666zm-29.67-17.129c.824.476 2.06.476 2.884 0 .825-.476.825-1.19 0-1.666-.824-.475-2.06-.475-2.884 0-.824.476-.824 1.19 0 1.666zm-29.669-17.13c.825.476 2.061.476 2.885 0 .824-.476.824-1.19 0-1.665-.824-.476-2.06-.476-2.885 0-.824.475-.824 1.189 0 1.665zm-59.338 102.777c.796.46 2.088.46 2.884 0 .797-.46.797-1.205 0-1.665-.796-.46-2.088-.46-2.884 0-.797.46-.797 1.205 0 1.665zm-29.67-17.128c.824.476 2.06.476 2.885 0 .824-.476.824-1.189 0-1.665-.825-.476-2.061-.476-2.885 0-.824.476-.824 1.189 0 1.665zm59.339 0c.824.476 2.06.476 2.884 0 .824-.476.824-1.189 0-1.665s-2.06-.476-2.884 0c-.824.476-.824 1.189 0 1.665zm-29.669-17.131c.824.476 2.06.476 2.884 0 .824-.475.824-1.189 0-1.665s-2.06-.476-2.884 0c-.825.476-.825 1.19 0 1.665zm-29.67 0c.824.476 2.06.476 2.884 0 .825-.475.825-1.189 0-1.665-.824-.476-2.06-.476-2.884 0-.824.476-.824 1.19 0 1.665zm29.67 17.13c.824.476 2.06.476 2.884 0 .824-.475.824-1.189 0-1.665s-2.06-.476-2.884 0c-.825.476-.825 1.19 0 1.665zm0-34.258c.824.475 2.061.475 2.885 0 .824-.476.824-1.19 0-1.666s-2.061-.476-2.885 0c-.824.476-.824 1.19 0 1.666zm29.669 17.128c.824.476 2.06.476 2.885 0 .824-.475.824-1.189 0-1.665-.825-.476-2.061-.476-2.885 0-.824.476-.824 1.19 0 1.665zm-89.008 0c.796.46 2.088.46 2.884 0 .797-.459.797-1.205 0-1.665-.796-.46-2.088-.46-2.884 0-.797.46-.797 1.206 0 1.665zm29.669-17.128c.825.475 2.061.475 2.885 0 .824-.476.824-1.19 0-1.666s-2.061-.476-2.885 0c-.824.476-.824 1.19 0 1.666z" fill="#4636E3"/><path d="M379.582 242.316c.825.476 2.061.476 2.885 0 .824-.475.824-1.189 0-1.665s-2.06-.476-2.885 0c-.824.476-.824 1.19 0 1.665zm-29.67-17.129c.825.475 2.061.475 2.885 0 .824-.476.824-1.19 0-1.666s-2.06-.476-2.885 0c-.824.476-.824 1.19 0 1.666zm-29.669-17.13c.825.476 2.061.476 2.885 0 .824-.476.824-1.19 0-1.666s-2.06-.476-2.884 0c-.825.476-.825 1.19-.001 1.666zm118.678-68.519c.797.46 2.088.46 2.885 0 .796-.46.796-1.205 0-1.665-.797-.46-2.088-.46-2.885 0-.796.46-.796 1.205 0 1.665zm-29.669-17.129c.824.476 2.06.476 2.884 0 .824-.476.824-1.189 0-1.665s-2.06-.476-2.884 0c-.825.476-.825 1.189 0 1.665zm59.339 0c.824.476 2.06.476 2.884 0 .825-.476.825-1.189 0-1.665-.824-.476-2.06-.476-2.884 0-.824.476-.824 1.189 0 1.665zm-29.67-17.131c.824.476 2.061.476 2.885 0 .824-.475.824-1.189 0-1.665s-2.061-.476-2.885 0c-.824.476-.824 1.19 0 1.665zm-29.669 0c.824.476 2.06.476 2.884 0 .824-.475.824-1.189 0-1.665s-2.06-.476-2.884 0c-.825.476-.825 1.19 0 1.665zm29.669 17.129c.824.476 2.061.476 2.885 0 .824-.476.824-1.189 0-1.665s-2.061-.476-2.885 0c-.824.476-.824 1.189 0 1.665zm0-34.259c.825.476 2.061.476 2.885 0 .824-.475.824-1.19 0-1.665-.824-.476-2.06-.476-2.885 0-.824.476-.824 1.19 0 1.665zm29.67 17.13c.824.476 2.06.476 2.884 0 .825-.475.825-1.189 0-1.665-.824-.476-2.06-.476-2.884 0-.824.476-.824 1.19 0 1.665zm-89.009-.001c.797.46 2.088.46 2.885 0 .796-.459.796-1.205 0-1.665-.797-.46-2.088-.46-2.885 0-.796.46-.796 1.206 0 1.665zm29.671-17.129c.824.476 2.06.476 2.884 0 .824-.475.824-1.19 0-1.665-.824-.476-2.06-.476-2.884 0-.825.476-.825 1.19 0 1.665zm89.007 17.129c.825.476 2.061.476 2.885 0 .824-.475.824-1.189 0-1.665s-2.06-.476-2.885 0c-.824.476-.824 1.19 0 1.665zm-29.67-17.129c.824.476 2.06.476 2.885 0 .824-.475.824-1.19 0-1.665-.825-.476-2.061-.476-2.885 0-.824.476-.824 1.19 0 1.665zm-29.669-17.13c.824.475 2.061.475 2.885 0 .824-.476.824-1.19 0-1.666s-2.061-.476-2.885 0c-.824.476-.824 1.19 0 1.666zm-59.338 102.779c.797.46 2.088.46 2.885 0 .796-.46.796-1.206 0-1.665-.797-.46-2.088-.46-2.885 0-.796.459-.796 1.205 0 1.665zm-29.669-17.129c.824.476 2.06.476 2.884 0 .825-.476.825-1.19 0-1.665-.824-.476-2.06-.476-2.884 0-.824.475-.824 1.189 0 1.665zm59.338 0c.824.476 2.061.476 2.885 0 .824-.476.824-1.19 0-1.665-.824-.476-2.061-.476-2.885 0-.824.475-.824 1.189 0 1.665zm-29.669-17.131c.824.476 2.06.476 2.885 0 .824-.476.824-1.189 0-1.665-.825-.476-2.061-.476-2.885 0-.824.476-.824 1.189 0 1.665zm-29.669 0c.824.476 2.06.476 2.884 0 .825-.476.825-1.189 0-1.665-.824-.476-2.06-.476-2.884 0-.824.476-.824 1.189 0 1.665zm29.669 17.131c.824.476 2.06.476 2.885 0 .824-.476.824-1.19 0-1.665-.824-.476-2.061-.476-2.885 0-.824.475-.824 1.189 0 1.665zm0-34.26c.824.476 2.06.476 2.885 0 .824-.476.824-1.189 0-1.665-.825-.476-2.061-.476-2.885 0-.824.476-.824 1.189 0 1.665zm29.669 17.129c.824.476 2.061.476 2.885 0 .824-.476.824-1.189 0-1.665s-2.061-.476-2.885 0c-.824.476-.824 1.189 0 1.665zm-89.008 0c.797.46 2.088.46 2.885 0 .796-.46.796-1.205 0-1.665-.797-.46-2.088-.46-2.885 0-.796.46-.796 1.205 0 1.665zm29.669-17.129c.824.476 2.061.476 2.885 0 .824-.476.824-1.189 0-1.665s-2.061-.476-2.885 0c-.824.476-.824 1.189 0 1.665z" fill="#4636E3"/><path d="M438.922 139.537c.825.476 2.061.476 2.885 0 .824-.476.824-1.189 0-1.665s-2.06-.476-2.885 0c-.824.476-.824 1.189 0 1.665zm-29.669-17.129c.824.476 2.06.476 2.885 0 .824-.476.824-1.189 0-1.665-.825-.476-2.061-.476-2.885 0-.824.476-.824 1.189 0 1.665zm-29.67-17.129c.824.476 2.06.476 2.884 0 .824-.475.824-1.189 0-1.665s-2.06-.476-2.884 0c-.825.476-.825 1.19 0 1.665zm-59.339 102.779c.796.459 2.088.459 2.884 0 .797-.46.797-1.206 0-1.666-.796-.46-2.088-.46-2.884 0-.797.46-.797 1.206 0 1.666zm-29.67-17.13c.824.476 2.06.476 2.885 0 .824-.476.824-1.19 0-1.666-.825-.475-2.061-.475-2.885 0-.824.476-.824 1.19 0 1.666zm59.339 0c.825.476 2.061.476 2.885 0 .824-.476.824-1.19 0-1.666-.824-.475-2.06-.475-2.885 0-.824.476-.824 1.19 0 1.666zm-29.669-17.13c.824.476 2.06.476 2.884 0 .824-.476.824-1.19 0-1.665-.824-.476-2.06-.476-2.884 0-.824.475-.824 1.189 0 1.665zm-29.67 0c.824.476 2.06.476 2.885 0 .824-.476.824-1.19 0-1.665-.825-.476-2.061-.476-2.885 0-.824.475-.824 1.189 0 1.665zm29.67 17.13c.824.476 2.06.476 2.884 0 .824-.476.824-1.19 0-1.666-.824-.475-2.06-.475-2.884 0-.824.476-.824 1.19 0 1.666zm0-34.26c.824.476 2.06.476 2.884 0 .824-.476.824-1.19 0-1.665-.824-.476-2.06-.476-2.884 0-.824.475-.824 1.189 0 1.665zm29.669 17.13c.825.476 2.061.476 2.885 0 .824-.476.824-1.19 0-1.665-.824-.476-2.06-.476-2.885 0-.824.475-.824 1.189 0 1.665zm-89.008 0c.797.46 2.088.46 2.885 0 .796-.46.796-1.206 0-1.665-.797-.46-2.088-.46-2.885 0-.796.459-.796 1.205 0 1.665zm29.669-17.13c.824.476 2.06.476 2.885 0 .824-.476.824-1.19 0-1.665-.825-.476-2.061-.476-2.885 0-.824.475-.824 1.189 0 1.665zm89.008 17.13c.825.476 2.061.476 2.885 0 .824-.476.824-1.19 0-1.665-.824-.476-2.06-.476-2.885 0-.824.475-.824 1.189 0 1.665zm-29.669-17.13c.824.476 2.06.476 2.884 0 .825-.476.825-1.19 0-1.665-.824-.476-2.06-.476-2.884 0-.824.475-.824 1.189 0 1.665zm-29.669-17.13c.824.476 2.06.476 2.884 0 .824-.476.824-1.189 0-1.665s-2.06-.476-2.884 0c-.824.476-.824 1.189 0 1.665zm-59.339 102.777c.796.46 2.088.46 2.884 0 .797-.459.797-1.205 0-1.665-.796-.46-2.088-.46-2.884 0-.797.46-.797 1.206 0 1.665zm-29.67-17.127c.825.475 2.061.475 2.885 0 .824-.476.824-1.19 0-1.666s-2.06-.476-2.885 0c-.824.476-.824 1.19 0 1.666zm59.339 0c.824.475 2.06.475 2.885 0 .824-.476.824-1.19 0-1.666-.825-.476-2.061-.476-2.885 0-.824.476-.824 1.19 0 1.666zm-29.669-17.131c.824.476 2.06.476 2.884 0 .824-.476.824-1.19 0-1.666s-2.06-.476-2.884 0c-.824.476-.824 1.19 0 1.666zm-29.67 0c.825.476 2.061.476 2.885 0 .824-.476.824-1.19 0-1.666s-2.06-.476-2.885 0c-.824.476-.824 1.19 0 1.666zm29.67 17.13c.824.475 2.06.475 2.884 0 .824-.476.824-1.19 0-1.666s-2.06-.476-2.884 0c-.824.476-.824 1.19 0 1.666zm-.001-34.259c.825.476 2.061.476 2.885 0 .824-.476.824-1.19 0-1.666-.824-.475-2.06-.475-2.885 0-.824.476-.824 1.19 0 1.666zm29.67 17.129c.824.476 2.06.476 2.885 0 .824-.476.824-1.19 0-1.666-.825-.476-2.061-.476-2.885 0-.824.476-.824 1.19 0 1.666zm-89.008 0c.797.46 2.088.46 2.885 0 .796-.46.796-1.206 0-1.666-.797-.46-2.088-.46-2.885 0-.797.46-.797 1.206 0 1.666zm29.67-17.129c.824.476 2.06.476 2.884 0 .825-.476.825-1.19 0-1.666-.824-.475-2.06-.475-2.884 0-.824.476-.824 1.19 0 1.666z" fill="#4636E3"/><path d="M320.244 208.057c.824.476 2.06.476 2.885 0 .824-.476.824-1.19 0-1.666-.825-.476-2.061-.476-2.885 0-.824.476-.824 1.19 0 1.666zm-29.67-17.13c.824.476 2.061.476 2.885 0 .824-.476.824-1.19 0-1.666-.824-.475-2.061-.475-2.885 0-.824.476-.824 1.19 0 1.666zm-29.67-17.129c.825.476 2.061.476 2.885 0 .824-.476.824-1.19 0-1.665-.824-.476-2.06-.476-2.885 0-.824.475-.824 1.189 0 1.665zm118.678-68.519c.797.46 2.088.46 2.885 0 .796-.46.796-1.205 0-1.665-.797-.46-2.088-.46-2.885 0-.796.46-.796 1.205 0 1.665zM349.913 88.15c.824.476 2.061.476 2.885 0 .824-.475.824-1.19 0-1.665-.824-.476-2.061-.476-2.885 0-.824.476-.824 1.19 0 1.665zm59.339 0c.824.476 2.06.476 2.885 0 .824-.475.824-1.19 0-1.665-.825-.476-2.061-.476-2.885 0-.824.476-.824 1.19 0 1.665zm-29.669-17.13c.824.475 2.06.475 2.884 0 .824-.476.824-1.19 0-1.666s-2.06-.476-2.884 0c-.825.476-.825 1.19 0 1.666zm-29.67 0c.824.475 2.061.475 2.885 0 .824-.476.824-1.19 0-1.666s-2.061-.476-2.885 0c-.824.476-.824 1.19 0 1.666zm29.669 17.13c.825.475 2.061.475 2.885 0 .824-.476.824-1.19 0-1.666s-2.06-.476-2.885 0c-.824.476-.824 1.19 0 1.665zm0-34.26c.825.475 2.061.475 2.885 0 .824-.476.824-1.19 0-1.666-.824-.475-2.06-.475-2.885 0-.824.476-.824 1.19 0 1.666zm29.67 17.13c.824.475 2.06.475 2.885 0 .824-.476.824-1.19 0-1.666-.825-.476-2.061-.476-2.885 0-.824.476-.824 1.19 0 1.665zm-89.009 0c.797.46 2.089.46 2.885 0 .797-.46.797-1.206 0-1.666-.796-.46-2.088-.46-2.885 0-.796.46-.796 1.206 0 1.666zm29.67-17.13c.824.475 2.06.475 2.885 0 .824-.476.824-1.19 0-1.666-.825-.475-2.061-.475-2.885 0-.824.476-.824 1.19 0 1.666zm89.008 17.129c.824.475 2.061.475 2.885 0 .824-.476.824-1.19 0-1.666s-2.061-.476-2.885 0c-.824.476-.824 1.19 0 1.666zm-29.669-17.13c.824.476 2.06.476 2.885 0 .824-.476.824-1.19 0-1.666-.825-.475-2.061-.475-2.885 0-.824.476-.824 1.19 0 1.666zm-29.67-17.129c.824.476 2.061.476 2.885 0 .824-.476.824-1.19 0-1.666-.824-.475-2.061-.475-2.885 0-.824.476-.824 1.19 0 1.666zm-59.338 102.777c.796.46 2.088.46 2.884 0 .797-.46.797-1.205 0-1.665-.796-.46-2.088-.46-2.884 0-.797.46-.797 1.205 0 1.665zm-29.67-17.129c.824.476 2.06.476 2.885 0 .824-.476.824-1.189 0-1.665-.825-.476-2.061-.476-2.885 0-.824.476-.824 1.189 0 1.665zm59.339 0c.824.476 2.061.476 2.885 0 .824-.476.824-1.189 0-1.665s-2.061-.476-2.885 0c-.824.476-.824 1.189 0 1.665zm-29.669-17.131c.824.476 2.06.476 2.884 0 .824-.475.824-1.189 0-1.665s-2.06-.476-2.884 0c-.824.476-.824 1.19 0 1.665zm-29.67 0c.824.476 2.06.476 2.885 0 .824-.475.824-1.189 0-1.665-.825-.476-2.061-.476-2.885 0-.824.476-.824 1.19 0 1.665zm29.67 17.129c.824.476 2.06.476 2.884 0 .824-.476.824-1.189 0-1.665s-2.06-.476-2.884 0c-.824.476-.824 1.189 0 1.665zm0-34.259c.824.476 2.06.476 2.884 0 .824-.475.824-1.19 0-1.665-.824-.476-2.06-.476-2.884 0-.824.476-.824 1.19 0 1.665zm29.669 17.13c.825.476 2.061.476 2.885 0 .824-.475.824-1.189 0-1.665s-2.06-.476-2.885 0c-.824.476-.824 1.19 0 1.665zm-89.007 0c.796.46 2.088.46 2.884 0 .797-.459.797-1.205 0-1.665-.796-.46-2.088-.46-2.884 0-.797.46-.797 1.206 0 1.665zm29.669-17.129c.824.476 2.06.476 2.884 0 .824-.475.824-1.19 0-1.665-.824-.476-2.06-.476-2.884 0-.825.476-.825 1.19 0 1.665z" fill="#4636E3"/><path d="M379.583 105.277c.824.476 2.06.476 2.884 0 .824-.475.824-1.189 0-1.665s-2.06-.476-2.884 0c-.825.476-.825 1.19 0 1.665zm-29.67-17.129c.824.476 2.06.476 2.884 0 .824-.475.824-1.19 0-1.665-.824-.476-2.06-.476-2.884 0-.824.476-.824 1.19 0 1.665zm-29.67-17.129c.824.475 2.06.475 2.884 0 .824-.476.824-1.19 0-1.666s-2.06-.476-2.884 0c-.824.476-.824 1.19 0 1.666zm-59.339 102.778c.797.46 2.088.46 2.885 0 .796-.46.796-1.206 0-1.665-.797-.46-2.088-.46-2.885 0-.796.459-.796 1.205 0 1.665zm-29.669-17.129c.824.476 2.06.476 2.885 0 .824-.476.824-1.19 0-1.665-.825-.476-2.061-.476-2.885 0-.824.475-.824 1.189 0 1.665zm59.339 0c.824.476 2.06.476 2.884 0 .824-.476.824-1.19 0-1.665-.824-.476-2.06-.476-2.884 0-.825.475-.825 1.189 0 1.665zm-29.67-17.131c.824.476 2.061.476 2.885 0 .824-.476.824-1.189 0-1.665s-2.061-.476-2.885 0c-.824.476-.824 1.189 0 1.665zm-29.669 0c.824.476 2.06.476 2.885 0 .824-.476.824-1.189 0-1.665-.825-.476-2.061-.476-2.885 0-.824.476-.824 1.189 0 1.665zm29.669 17.131c.824.476 2.061.476 2.885 0 .824-.476.824-1.19 0-1.665-.824-.476-2.061-.476-2.885 0-.824.475-.824 1.189 0 1.665zm0-34.26c.824.476 2.061.476 2.885 0 .824-.476.824-1.189 0-1.665s-2.061-.476-2.885 0c-.824.476-.824 1.189 0 1.665zm29.67 17.129c.824.476 2.06.476 2.884 0 .824-.476.824-1.189 0-1.665s-2.06-.476-2.884 0c-.825.476-.825 1.189 0 1.665zm-89.009.001c.797.46 2.088.46 2.885 0 .796-.46.796-1.205 0-1.665-.797-.46-2.088-.46-2.885 0-.796.46-.796 1.205 0 1.665zm29.671-17.128c.824.476 2.06.476 2.884 0 .825-.476.825-1.189 0-1.665-.824-.476-2.06-.476-2.884 0-.824.476-.824 1.189 0 1.665zm89.007 17.127c.824.476 2.06.476 2.884 0 .824-.476.824-1.189 0-1.665s-2.06-.476-2.884 0c-.825.476-.825 1.189 0 1.665zm-29.671-17.129c.825.476 2.061.476 2.885 0 .824-.476.824-1.189 0-1.665s-2.06-.476-2.885 0c-.824.476-.824 1.189 0 1.665zm-29.669-17.13c.825.476 2.061.476 2.885 0 .824-.475.824-1.189 0-1.665s-2.06-.476-2.885 0c-.824.476-.824 1.19 0 1.665zm-59.338 102.779c.797.459 2.088.459 2.885 0 .796-.46.796-1.206 0-1.666-.797-.46-2.088-.46-2.885 0-.796.46-.796 1.206 0 1.666zm-29.669-17.129c.824.476 2.061.476 2.885 0 .824-.476.824-1.19 0-1.666-.825-.475-2.061-.475-2.885 0-.824.476-.824 1.19 0 1.666zm59.339 0c.824.476 2.06.476 2.884 0 .824-.476.824-1.19 0-1.666-.824-.475-2.06-.475-2.884 0-.824.476-.824 1.19 0 1.666zm-29.669-17.131c.824.476 2.06.476 2.884 0 .824-.476.824-1.19 0-1.665-.824-.476-2.06-.476-2.884 0-.825.475-.825 1.189 0 1.665zm-29.67 0c.824.476 2.06.476 2.885 0 .824-.476.824-1.19 0-1.665-.825-.476-2.061-.476-2.885 0-.824.475-.824 1.189 0 1.665zm29.67 17.13c.824.476 2.06.476 2.884 0 .824-.476.824-1.19 0-1.666-.824-.475-2.06-.475-2.884 0-.825.476-.825 1.19 0 1.666zm0-34.259c.824.476 2.06.476 2.884 0 .824-.476.824-1.19 0-1.665-.824-.476-2.06-.476-2.884 0-.825.475-.825 1.189 0 1.665zm29.669 17.129c.824.476 2.06.476 2.884 0 .824-.476.824-1.19 0-1.665-.824-.476-2.06-.476-2.884 0-.824.475-.824 1.189 0 1.665zm-89.009-.001c.797.46 2.088.46 2.885 0 .797-.46.797-1.206 0-1.665-.797-.46-2.088-.46-2.885 0-.796.459-.796 1.205 0 1.665zm29.671-17.128c.824.476 2.06.476 2.885 0 .824-.476.824-1.19 0-1.665-.825-.476-2.061-.476-2.885 0-.824.475-.824 1.189 0 1.665z" fill="#4636E3"/><path d="M260.904 173.795c.825.476 2.061.476 2.885 0 .824-.476.824-1.19 0-1.665-.824-.476-2.06-.476-2.885 0-.824.475-.824 1.189 0 1.665zm-29.67-17.128c.825.476 2.061.476 2.885 0 .824-.476.824-1.19 0-1.665-.824-.476-2.06-.476-2.885 0-.824.475-.824 1.189 0 1.665zm-29.668-17.129c.824.476 2.06.476 2.884 0 .824-.476.824-1.189 0-1.665s-2.06-.476-2.884 0c-.825.476-.825 1.189 0 1.665zm118.677-68.52c.797.46 2.089.46 2.885 0 .797-.46.797-1.206 0-1.666-.796-.46-2.088-.46-2.885 0-.796.46-.796 1.206 0 1.666zm-29.669-17.129c.824.476 2.061.476 2.885 0 .824-.476.824-1.19 0-1.666-.824-.475-2.061-.475-2.885 0-.824.476-.824 1.19 0 1.666zm59.339 0c.824.476 2.06.476 2.884 0 .824-.476.824-1.19 0-1.666-.824-.475-2.06-.475-2.884 0-.824.476-.824 1.19 0 1.666zm-29.669-17.131c.824.476 2.06.476 2.884 0 .824-.476.824-1.19 0-1.666-.824-.475-2.06-.475-2.885 0-.824.476-.824 1.19.001 1.666zm-29.67 0c.824.476 2.061.476 2.885 0 .824-.476.824-1.19 0-1.666-.824-.475-2.061-.475-2.885 0-.824.476-.824 1.19 0 1.666zm29.669 17.13c.825.476 2.061.476 2.885 0 .824-.476.824-1.19 0-1.666s-2.06-.476-2.884 0c-.825.476-.825 1.19-.001 1.666zm.001-34.259c.824.476 2.06.476 2.884 0 .824-.476.824-1.19 0-1.665-.824-.476-2.06-.476-2.884 0-.825.475-.825 1.19 0 1.665zm29.669 17.129c.824.476 2.06.476 2.884 0 .824-.476.824-1.19 0-1.666-.824-.475-2.06-.475-2.884 0-.824.476-.824 1.19 0 1.666zm-89.008.001c.797.46 2.088.46 2.885 0 .796-.46.796-1.206 0-1.666-.797-.46-2.088-.46-2.885 0-.796.46-.796 1.206 0 1.666zm29.671-17.129c.824.476 2.06.476 2.884 0 .824-.476.824-1.19 0-1.665-.824-.476-2.06-.476-2.884 0-.825.475-.825 1.19 0 1.665zm89.006 17.13c.824.476 2.061.476 2.885 0 .824-.476.824-1.19 0-1.666-.824-.475-2.061-.475-2.885 0-.824.476-.824 1.19 0 1.666zm-29.67-17.13c.824.476 2.061.476 2.885 0 .824-.476.824-1.19 0-1.665-.824-.476-2.061-.476-2.885 0-.824.475-.824 1.19 0 1.665zM320.244 2.5c.824.476 2.06.476 2.884 0 .824-.476.824-1.19 0-1.665-.824-.476-2.06-.476-2.884 0-.825.475-.825 1.19 0 1.665zm-59.34 102.78c.797.46 2.088.46 2.885 0 .796-.46.796-1.205 0-1.665-.797-.46-2.088-.46-2.885 0-.796.46-.796 1.205 0 1.665zm-29.669-17.13c.824.475 2.06.475 2.885 0 .824-.476.824-1.19 0-1.666-.825-.476-2.061-.476-2.885 0-.824.476-.824 1.19 0 1.665zm59.339 0c.824.475 2.06.475 2.884 0 .825-.476.825-1.19 0-1.666-.824-.476-2.06-.476-2.884 0-.824.476-.824 1.19 0 1.665zm-29.67-17.13c.824.475 2.061.475 2.885 0 .824-.476.824-1.19 0-1.666s-2.061-.476-2.885 0c-.824.476-.824 1.19 0 1.666zm-29.669 0c.824.475 2.06.475 2.885 0 .824-.476.824-1.19 0-1.666-.825-.476-2.061-.476-2.885 0-.824.476-.824 1.19 0 1.666zm29.669 17.13c.825.475 2.061.475 2.885 0 .824-.476.824-1.19 0-1.666s-2.06-.476-2.885 0c-.824.476-.824 1.19 0 1.665zm0-34.26c.825.475 2.061.475 2.885 0 .824-.476.824-1.19 0-1.666-.824-.475-2.06-.475-2.885 0-.824.476-.824 1.19 0 1.666zm29.67 17.13c.824.475 2.06.475 2.884 0 .825-.476.825-1.19 0-1.666-.824-.476-2.06-.476-2.884 0-.824.476-.824 1.19 0 1.666zm-89.008-.001c.797.46 2.088.46 2.885 0 .796-.46.796-1.206 0-1.666-.797-.46-2.088-.46-2.885 0-.797.46-.797 1.206 0 1.666zm29.669-17.13c.824.476 2.061.476 2.885 0 .824-.476.824-1.19 0-1.666-.824-.475-2.061-.475-2.885 0-.824.476-.824 1.19 0 1.666z" fill="#4636E3"/><path d="M320.243 71.019c.824.475 2.061.475 2.885 0 .824-.476.824-1.19 0-1.666s-2.061-.476-2.885 0c-.824.476-.824 1.19 0 1.666zm-29.669-17.13c.824.476 2.06.476 2.885 0 .824-.476.824-1.19 0-1.666-.825-.475-2.061-.475-2.885 0-.824.476-.824 1.19 0 1.666zM260.905 36.76c.824.476 2.06.476 2.884 0 .825-.476.825-1.19 0-1.666-.824-.475-2.06-.475-2.884 0-.824.476-.824 1.19 0 1.666zm-59.34 102.777c.797.46 2.088.46 2.885 0 .796-.46.796-1.205 0-1.665-.797-.46-2.088-.46-2.885 0-.796.46-.796 1.205 0 1.665zm-29.669-17.129c.824.476 2.061.476 2.885 0 .824-.476.824-1.189 0-1.665-.825-.476-2.061-.476-2.885 0-.824.476-.824 1.189 0 1.665zm59.339 0c.824.476 2.06.476 2.884 0 .824-.476.824-1.189 0-1.665s-2.06-.476-2.884 0c-.825.476-.825 1.189 0 1.665zm-29.67-17.131c.824.476 2.061.476 2.885 0 .824-.475.824-1.189 0-1.665s-2.061-.476-2.885 0c-.824.476-.824 1.19 0 1.665zm-29.669 0c.824.476 2.06.476 2.885 0 .824-.475.824-1.189 0-1.665-.825-.476-2.061-.476-2.885 0-.824.476-.824 1.19 0 1.665zm29.669 17.13c.824.476 2.061.476 2.885 0 .824-.476.824-1.189 0-1.665s-2.061-.476-2.885 0c-.824.476-.824 1.189 0 1.665zm.001-34.259c.824.476 2.06.476 2.884 0 .824-.475.824-1.19 0-1.665-.824-.476-2.06-.476-2.884 0-.825.476-.825 1.19 0 1.665zm29.669 17.129c.824.476 2.06.476 2.884 0 .824-.475.824-1.189 0-1.665s-2.06-.476-2.885 0c-.824.476-.824 1.19.001 1.665zm-89.008 0c.796.46 2.088.46 2.884 0 .797-.459.797-1.205 0-1.665-.796-.46-2.088-.46-2.884 0-.797.46-.797 1.206 0 1.665zm29.668-17.13c.824.476 2.061.476 2.885 0 .824-.475.824-1.19 0-1.665-.824-.476-2.061-.476-2.885 0-.824.476-.824 1.19 0 1.665zm89.009 17.129c.824.476 2.061.476 2.885 0 .824-.475.824-1.189 0-1.665s-2.061-.476-2.885 0c-.824.476-.824 1.19 0 1.665zm-29.669-17.129c.824.476 2.061.476 2.885 0 .824-.475.824-1.19 0-1.665-.824-.476-2.061-.476-2.885 0-.824.476-.824 1.19 0 1.665zm-29.669-17.129c.824.475 2.061.475 2.885 0 .824-.476.824-1.19 0-1.666s-2.061-.476-2.885 0c-.824.476-.824 1.19 0 1.666zm-59.34 102.779c.797.46 2.088.46 2.885 0 .797-.46.797-1.206 0-1.665-.797-.46-2.088-.46-2.885 0-.796.459-.796 1.205 0 1.665zm-29.669-17.129c.824.476 2.06.476 2.885 0 .824-.476.824-1.19 0-1.665-.825-.476-2.061-.476-2.885 0-.824.475-.824 1.189 0 1.665zm59.339 0c.824.476 2.06.476 2.884 0 .824-.476.824-1.19 0-1.665-.824-.476-2.06-.476-2.884 0-.825.475-.825 1.189 0 1.665zm-29.67-17.131c.825.476 2.061.476 2.885 0 .824-.476.824-1.189 0-1.665s-2.06-.476-2.885 0c-.824.476-.824 1.189 0 1.665zm-29.669 0c.824.476 2.061.476 2.885 0 .824-.476.824-1.189 0-1.665s-2.061-.476-2.885 0c-.824.476-.824 1.189 0 1.665zm29.669 17.131c.825.476 2.061.476 2.885 0 .824-.476.824-1.19 0-1.665-.824-.476-2.06-.476-2.885 0-.824.475-.824 1.189 0 1.665zm.001-34.26c.824.476 2.06.476 2.884 0 .824-.476.824-1.189 0-1.665s-2.06-.476-2.884 0c-.824.476-.824 1.189 0 1.665zm29.669 17.129c.824.476 2.06.476 2.884 0 .824-.476.824-1.189 0-1.665s-2.06-.476-2.884 0c-.825.476-.825 1.189 0 1.665zm-89.009.001c.797.46 2.088.46 2.885 0 .796-.46.796-1.205 0-1.665-.797-.46-2.088-.46-2.885 0-.796.46-.796 1.205 0 1.665zm29.67-17.129c.824.476 2.061.476 2.885 0 .824-.476.824-1.189 0-1.665s-2.061-.476-2.885 0c-.824.476-.824 1.189 0 1.665z" fill="#4636E3"/><path d="M201.565 139.538c.824.476 2.061.476 2.885 0 .824-.476.824-1.189 0-1.665s-2.061-.476-2.885 0c-.824.476-.824 1.189 0 1.665zm-29.67-17.129c.824.476 2.061.476 2.885 0 .824-.476.824-1.189 0-1.665s-2.06-.476-2.885 0c-.824.476-.824 1.189 0 1.665zm-29.667-17.13c.824.476 2.061.476 2.885 0 .824-.475.824-1.189 0-1.665s-2.061-.476-2.885 0c-.824.476-.824 1.19 0 1.665z" fill="#4636E3"/></svg>