<svg width="31" height="31" viewBox="0 0 31 31" fill="none" xmlns="http://www.w3.org/2000/svg"><path d="M14.49 1.507a1 1 0 011.732-.021l9.902 16.641a1 1 0 01-.859 1.511H6.01a1 1 0 01-.872-1.49l9.353-16.64z" fill="#C83C29"/><path d="M15.851 13.81h-1.094l-.46-8.07h2.015l-.46 8.07zm-1.708 2.334c0-.195.03-.36.09-.493a.895.895 0 01.606-.516c.138-.04.29-.061.452-.061.156 0 .304.02.443.061a.893.893 0 01.37.185.846.846 0 01.245.331c.06.134.09.298.09.493 0 .19-.03.354-.09.493a.93.93 0 01-.245.331.972.972 0 01-.37.193 1.551 1.551 0 01-.443.061c-.163 0-.314-.02-.452-.061a.932.932 0 01-.606-.524 1.23 1.23 0 01-.09-.493z" fill="#061828"/></svg>