<svg width="32" height="32" viewBox="0 0 32 32" fill="none" xmlns="http://www.w3.org/2000/svg"><path d="M4.254 18.754a2.254 2.254 0 11-.001-4.507 2.254 2.254 0 01.001 4.507zm22.542-4.508a2.253 2.253 0 10-.002 4.507 2.253 2.253 0 00.002-4.507zM5.442 22.018a2.255 2.255 0 102.899 3.455 2.255 2.255 0 00-2.899-3.455zm20.166-11.036a2.255 2.255 0 10-2.899-3.455 2.255 2.255 0 002.899 3.455zM8.34 7.528a2.254 2.254 0 10-2.898 3.453A2.254 2.254 0 008.34 7.528zm17.268 14.49a2.254 2.254 0 10-2.898 3.453 2.254 2.254 0 002.898-3.453zm-5.756-4.83a2.254 2.254 0 10-2.898 3.452 2.254 2.254 0 002.898-3.453zm-5.756-4.83a2.254 2.254 0 10-2.898 3.453 2.254 2.254 0 002.898-3.453z" fill="#fff"/></svg>