<svg width="43" height="43" viewBox="0 0 43 43" fill="none" xmlns="http://www.w3.org/2000/svg"><path d="M13.036 29.793l-.703.392.5-.625a22.98 22.98 0 005.145-14.135l.013-.805.287.75a22.98 22.98 0 009.685 11.523l.69.412-.795-.127a22.98 22.98 0 00-14.822 2.615z" fill="#5E5CEB"/><path d="M24.429 24.297c-4.36-6.145-3.613-9.647-2.4-14.327 1.437-5.55-1.963-11.058-7.915-9.425-2.638.725-3.57 2.52-3.9 3.78C8.599 10.4 18.179 19.45 24.429 24.298zM6.294 29.018c-5.525 1.53-8.595 7.232-4.205 11.567 1.945 1.92 3.965 1.83 5.222 1.5 6.068-1.642 9.115-14.465 10.19-22.3-3.142 6.838-6.537 7.943-11.207 9.233zm35.17-3.308c-4.458-4.433-17.085-.663-24.408 2.325 7.5-.703 10.16 1.695 13.608 5.085 4.087 4.02 10.557 3.828 12.12-2.142.68-2.646-.408-4.35-1.32-5.268z" fill="#fff"/></svg>